<?xml version="1.0" standalone="no"?>
<!DOCTYPE svg PUBLIC "-//W3C//DTD SVG 20010904//EN"
        "http://www.w3.org/TR/2001/REC-SVG-20010904/DTD/svg10.dtd">
<svg version="1.0" xmlns="http://www.w3.org/2000/svg"
     width="60.000000pt" height="60.000000pt" viewBox="0 0 3000.000000 3000.000000"
     preserveAspectRatio="xMidYMid meet">

    <g transform="translate(0.000000,2600.000000) scale(0.100000,-0.100000)"
       fill="#000000" stroke="none">
        <path d="M7410 25690 c-214 -10 -369 -20 -475 -31 -49 -5 -101 -9 -115 -10
l-25 -1 25 -8 c14 -4 63 -20 109 -34 47 -15 101 -34 120 -43 363 -161 650
-369 1016 -737 235 -235 406 -431 643 -736 263 -339 644 -913 876 -1320 155
-271 167 -292 264 -440 648 -985 1505 -1702 2507 -2100 337 -134 696 -236
1035 -294 19 -3 46 -8 60 -11 69 -14 432 -56 560 -64 139 -9 656 -6 770 4 110
10 246 24 287 31 l32 5 -104 207 c-233 461 -476 866 -752 1253 -145 205 -192
251 -353 349 -269 163 -623 294 -1058 390 -51 11 -110 23 -130 26 -20 3 -44 7
-52 9 -18 5 -38 8 -210 34 -121 18 -429 51 -615 66 -38 3 -275 8 -525 12 -299
4 -446 9 -430 15 91 35 527 103 820 129 217 19 857 15 923 -6 7 -2 44 -6 82
-10 39 -3 81 -7 95 -10 320 -53 454 -84 655 -150 72 -24 139 -47 150 -51 29
-11 -81 110 -305 339 -395 403 -815 768 -1232 1069 -160 116 -237 157 -432
229 -160 58 -489 141 -696 173 -158 25 -405 53 -555 61 -55 3 -122 8 -149 11
-27 2 -191 5 -364 5 -173 0 -311 4 -306 8 24 23 400 84 654 107 226 20 689 15
864 -10 61 -9 111 -14 112 -13 2 2 -18 14 -44 29 -26 14 -135 74 -242 133
-693 380 -1372 653 -2200 884 -58 17 -97 30 -87 30 22 1 350 -69 488 -104 57
-15 115 -29 129 -32 23 -4 253 -67 420 -114 273 -79 834 -276 1007 -355 28
-13 54 -24 57 -24 31 0 714 -325 896 -426 517 -288 812 -477 1230 -790 113
-85 209 -155 215 -156 8 -3 38 64 51 112 26 99 45 183 50 220 3 25 8 48 11 53
2 4 5 69 5 145 0 138 -16 254 -46 340 -38 106 53 -10 129 -166 56 -114 97
-236 126 -379 20 -95 23 -140 23 -365 l1 -258 165 -153 c413 -384 641 -629
1047 -1125 19 -24 37 -41 39 -39 13 13 35 244 35 367 0 201 -21 340 -76 496
-12 35 -18 64 -14 64 23 0 142 -219 194 -355 100 -261 147 -512 161 -850 l6
-150 92 -140 c130 -196 256 -405 353 -580 48 -87 81 -137 78 -120 -3 17 -12
80 -21 140 -72 496 -243 1110 -424 1520 -10 22 -31 72 -48 110 -249 571 -653
1151 -1118 1605 -506 493 -1053 858 -1797 1198 -37 17 -142 61 -235 97 -92 36
-178 71 -192 77 -48 20 -488 167 -561 187 -41 11 -139 38 -219 60 -299 82
-742 176 -1015 217 -22 3 -83 12 -135 20 -150 23 -385 53 -500 64 -244 23
-421 38 -567 45 -59 4 -128 8 -153 11 -80 8 -930 11 -1090 4z"/>
        <path d="M7771 19471 l-713 -16 -618 -1483 c-548 -1316 -629 -1508 -630 -1491
0 2 -130 663 -289 1469 l-288 1465 -174 -2 c-391 -4 -1394 -25 -1399 -30 -6
-6 -671 -6005 -666 -6011 5 -5 1199 19 1205 24 3 3 428 3814 431 3869 1 17 3
16 10 -5 5 -14 126 -623 271 -1355 144 -731 263 -1332 265 -1333 1 -2 196 0
432 4 l429 7 569 1369 c313 753 570 1363 572 1355 1 -7 -92 -867 -208 -1910
-115 -1043 -210 -1910 -210 -1927 0 -29 2 -31 33 -26 17 3 239 8 492 12 253 3
509 9 570 13 l109 6 327 2950 c180 1623 330 2976 334 3008 l6 57 -73 -2 c-40
0 -394 -8 -787 -17z"/>
        <path d="M28376 18169 c-736 -15 -1340 -30 -1342 -32 -5 -5 -97 -828 -92 -831
1 -1 230 3 508 10 278 6 507 9 510 7 2 -2 -82 -781 -187 -1731 -105 -950 -190
-1728 -189 -1729 2 -2 900 18 903 21 1 1 88 778 193 1726 105 948 193 1727
196 1730 3 3 234 9 512 14 279 5 508 9 509 10 2 1 93 815 93 830 0 8 -98 7
-1614 -25z"/>
        <path d="M24855 18099 c-225 -5 -464 -11 -530 -15 l-120 -6 -238 -2145 c-131
-1180 -236 -2146 -235 -2147 6 -3 883 15 894 19 6 2 46 329 100 814 l89 811
104 0 c133 0 203 -19 267 -72 121 -99 161 -203 303 -779 60 -244 126 -515 147
-602 l39 -158 35 5 c19 3 234 8 478 12 243 3 442 8 442 10 0 14 -316 1287
-340 1370 -97 333 -218 524 -379 596 l-44 20 81 43 c108 58 160 94 239 168
205 191 337 481 387 849 44 318 21 586 -64 775 -101 223 -297 360 -590 415
-131 24 -469 30 -1065 17z m582 -814 c28 -8 73 -30 100 -48 100 -67 146 -227
124 -435 -21 -197 -53 -305 -120 -409 -92 -142 -220 -193 -494 -193 l-148 0 6
33 c6 40 115 1028 115 1050 0 13 14 17 78 20 124 7 285 -2 339 -18z"/>
        <path d="M21926 18039 c-186 -4 -340 -10 -343 -13 -3 -3 -1298 -3446 -1601
-4259 l-22 -57 398 6 c218 4 424 9 456 13 l59 6 141 391 141 392 430 7 c236 4
493 8 569 9 l140 1 53 -384 c29 -212 55 -386 57 -389 6 -5 895 14 901 20 3 3
-145 963 -328 2134 l-333 2129 -189 1 c-105 1 -342 -3 -529 -7z m154 -1974
c55 -401 98 -730 96 -732 -5 -5 -719 -22 -727 -17 -4 2 112 335 257 740 145
406 264 740 264 742 0 3 2 3 5 0 3 -3 51 -333 105 -733z"/>
        <path d="M19335 17987 c-236 -5 -433 -12 -438 -16 -5 -5 -792 -1885 -879
-2101 -6 -14 -12 -20 -14 -14 -3 5 -96 477 -208 1048 -113 571 -207 1040 -209
1043 -4 4 -1121 -16 -1123 -21 -4 -11 -473 -4290 -470 -4293 8 -9 847 14 855
23 4 5 74 612 155 1349 151 1365 157 1418 162 1413 1 -2 86 -428 189 -948 102
-520 189 -954 192 -964 5 -19 16 -19 312 -13 168 4 307 10 309 14 57 152 811
1942 812 1928 0 -11 -68 -634 -151 -1383 -83 -750 -149 -1365 -147 -1366 5 -3
853 15 856 19 2 1 108 954 237 2116 129 1163 236 2129 239 2147 l5 32 -127 -2
c-70 -1 -320 -6 -557 -11z"/>
        <path d="M15047 17900 c-147 -4 -269 -9 -272 -12 -6 -6 -475 -4216 -475 -4262
l0 -29 448 8 c246 4 448 8 450 10 1 1 108 954 237 2116 129 1163 236 2129 239
2147 l5 32 -182 -2 c-100 -1 -302 -4 -450 -8z"/>
        <path d="M13481 17869 c-194 -4 -355 -10 -358 -13 -2 -2 -70 -599 -151 -1327
-89 -805 -149 -1315 -154 -1303 -4 10 -166 600 -359 1309 -193 710 -355 1294
-359 1298 -6 7 -989 -8 -996 -15 -5 -6 -477 -4289 -473 -4293 6 -5 851 13 856
19 3 2 71 600 152 1328 81 727 149 1316 153 1308 3 -8 164 -598 358 -1310 194
-712 356 -1299 360 -1303 7 -8 989 8 996 16 4 4 474 4246 474 4275 0 21 -4 22
-72 20 -40 0 -232 -5 -427 -9z"/>
        <path d="M9985 17799 c-110 -4 -284 -7 -387 -8 -104 0 -188 -2 -188 -3 -7 -37
-477 -4294 -474 -4297 5 -5 893 14 898 20 7 7 480 4278 475 4283 -9 9 -137 11
-324 5z"/>
        <path d="M29126 13402 c-371 -360 -1000 -699 -1801 -972 -1107 -377 -2514
-618 -4175 -715 -691 -40 -716 -40 -3455 -38 -4145 3 -4857 10 -5325 53 -118
12 -1044 99 -2057 195 -2045 194 -2166 202 -2723 191 -770 -16 -1447 -78
-2055 -187 -590 -106 -935 -189 -1295 -309 -777 -259 -1456 -654 -2065 -1202
-712 -640 -1300 -1462 -1760 -2462 -447 -974 -788 -2196 -898 -3223 -15 -140
-19 -137 74 -58 84 72 374 264 383 254 2 -2 -9 -84 -25 -182 -62 -391 -108
-822 -129 -1216 -6 -106 -9 -196 -6 -198 3 -3 61 48 129 113 650 623 2018
1151 3712 1433 848 142 1628 219 2760 272 386 18 1939 21 4775 10 l2705 -10
2000 -65 c1100 -36 2045 -68 2100 -71 55 -4 309 -26 565 -50 288 -28 575 -49
755 -56 685 -27 1585 23 2305 127 354 51 944 166 1230 240 225 58 600 183 805
269 1233 513 2245 1426 3007 2710 504 850 897 1875 1142 2975 78 350 148 766
179 1057 15 140 19 137 -74 57 -137 -118 -428 -291 -688 -409 -156 -71 -149
-72 -132 22 17 87 70 462 90 638 36 306 79 900 67 912 -3 3 -57 -44 -120 -105z
m-18406 -3623 c0 -22 -111 -674 -135 -790 -14 -68 -23 -124 -21 -126 2 -2 16
17 31 43 38 66 159 184 225 222 126 71 312 93 441 52 115 -36 187 -107 231
-226 19 -51 22 -79 22 -199 0 -130 -7 -180 -92 -682 -51 -298 -92 -545 -92
-548 0 -3 -90 -5 -200 -5 -110 0 -200 4 -200 9 0 5 37 224 81 487 103 608 107
692 31 793 -32 43 -82 63 -159 63 -123 1 -235 -83 -311 -230 -22 -43 -48 -103
-57 -134 -9 -31 -51 -265 -93 -520 l-78 -463 -202 -3 -202 -2 6 27 c3 16 88
522 189 1125 101 604 187 1102 190 1108 9 14 395 14 395 -1z m9122 6 c3 -3
-75 -483 -173 -1068 -98 -584 -183 -1092 -190 -1129 l-11 -68 -199 0 c-150 0
-199 3 -199 12 0 16 370 2229 375 2246 3 9 52 12 198 12 107 0 196 -2 199 -5z
m801 -2 c2 -5 -8 -78 -22 -163 l-27 -155 -189 -3 c-104 -1 -194 0 -201 2 -8 3
-4 46 13 153 13 81 26 154 28 161 3 9 52 12 199 12 107 0 197 -3 199 -7z
m2407 1 c0 -18 -52 -309 -56 -316 -3 -4 -93 -8 -200 -8 -178 0 -194 1 -194 18
0 9 11 82 25 162 14 80 25 146 25 148 0 5 400 2 400 -4z m-9188 -120 c78 -19
126 -44 178 -96 113 -113 131 -299 46 -473 -71 -144 -201 -254 -445 -379
l-159 -81 34 -85 c43 -106 128 -275 181 -359 l41 -63 82 123 c45 68 116 193
157 277 41 83 76 152 79 152 4 0 267 -101 272 -105 4 -3 -80 -178 -126 -260
-60 -108 -135 -225 -198 -311 l-53 -71 27 -26 c38 -35 99 -65 156 -76 46 -8
161 0 199 15 22 8 22 9 -8 -165 -14 -82 -30 -148 -37 -152 -24 -15 -109 -29
-176 -29 -140 1 -261 42 -375 128 l-67 51 -57 -36 c-157 -100 -294 -143 -489
-150 -162 -6 -248 7 -352 57 -84 40 -126 73 -173 139 -59 82 -81 164 -81 291
2 309 174 561 502 734 68 36 90 52 86 63 -16 41 -36 195 -36 275 0 356 207
598 535 627 98 8 182 4 257 -15z m-8192 -6 c0 -7 -12 -86 -26 -175 l-27 -163
-523 0 -522 0 -6 -27 c-3 -16 -26 -152 -51 -303 -25 -151 -48 -287 -51 -302
l-6 -28 506 0 c475 0 506 -1 505 -17 0 -10 -12 -90 -27 -178 l-28 -160 -506
-3 -507 -2 -10 -53 c-11 -52 -121 -711 -121 -721 0 -9 -420 -7 -420 2 -1 10
351 2115 355 2130 4 9 159 12 735 12 577 0 730 -3 730 -12z m11091 -16 c263
-63 452 -216 533 -429 46 -123 59 -219 53 -392 -8 -247 -59 -455 -165 -663
-176 -347 -476 -575 -829 -627 -108 -16 -973 -15 -973 2 -1 6 79 490 177 1075
l178 1063 470 -4 c434 -4 477 -5 556 -25z m-10005 -453 l21 -7 -30 -182 -30
-182 -26 6 c-14 4 -63 9 -108 13 -113 8 -168 -12 -249 -92 -70 -69 -121 -165
-152 -285 -11 -41 -52 -270 -93 -507 l-73 -433 -198 0 c-173 0 -198 2 -198 16
0 8 52 322 115 697 95 570 145 888 145 929 0 4 86 8 190 8 l190 0 0 -33 c0
-18 -7 -87 -15 -152 -8 -66 -15 -127 -15 -135 0 -8 18 18 40 58 107 196 193
273 323 292 54 7 127 3 163 -11z m2677 -5 c187 -37 325 -166 357 -333 20 -105
34 -95 -170 -117 l-179 -20 -11 53 c-23 107 -88 143 -260 143 -127 0 -192 -19
-246 -74 -76 -75 -66 -176 21 -223 22 -11 119 -41 215 -66 359 -93 460 -149
529 -297 22 -47 26 -68 25 -150 -1 -228 -119 -417 -324 -517 -135 -66 -211
-84 -390 -90 -233 -8 -399 22 -510 92 -78 50 -136 136 -166 250 -28 104 -35
98 139 124 83 12 164 25 178 28 25 5 27 2 38 -44 18 -74 45 -111 99 -136 42
-20 63 -22 207 -21 125 0 169 4 203 17 106 41 148 104 143 214 -2 37 -57 90
-117 113 -31 11 -104 32 -162 45 -150 36 -297 82 -362 115 -120 61 -190 165
-198 294 -13 224 114 437 320 534 45 22 112 47 148 57 123 33 333 37 473 9z
m18249 1 c137 -28 267 -115 317 -213 25 -50 51 -144 51 -187 l0 -32 -180 -19
-179 -20 -7 43 c-8 58 -41 104 -89 128 -56 28 -240 34 -322 10 -122 -36 -183
-153 -127 -242 23 -36 80 -59 251 -102 162 -41 310 -89 373 -121 154 -79 227
-249 186 -440 -39 -182 -150 -326 -316 -407 -135 -66 -211 -84 -390 -90 -418
-14 -623 93 -679 355 -20 93 -32 85 166 115 128 19 179 24 184 16 4 -7 10 -28
13 -48 9 -57 42 -100 94 -124 42 -20 63 -22 207 -21 169 0 211 8 276 55 41 29
71 93 72 151 1 42 -4 53 -33 83 -40 42 -103 66 -265 105 -327 78 -451 145
-512 277 -49 106 -36 277 30 413 41 83 140 185 227 232 172 95 428 127 652 83z
m-19874 0 c189 -45 314 -174 367 -380 30 -116 29 -362 -2 -517 l-5 -28 -488 0
-488 0 -8 -66 c-30 -283 63 -426 268 -412 115 9 184 53 259 168 l16 24 177
-16 c98 -9 180 -18 183 -21 12 -13 -112 -179 -183 -246 -85 -79 -210 -148
-324 -178 -94 -25 -352 -25 -435 0 -192 59 -319 198 -361 397 -22 104 -20 295
5 441 80 464 316 756 675 834 84 18 266 18 344 0z m10731 0 c188 -45 322 -188
367 -395 20 -93 22 -309 4 -437 l-13 -93 -487 0 -488 0 -6 -35 c-13 -67 -7
-228 10 -285 21 -71 81 -133 144 -150 58 -16 166 -7 222 18 50 22 99 69 134
127 l23 41 182 -18 c100 -9 183 -19 185 -21 7 -6 -94 -154 -141 -206 -91 -100
-225 -180 -365 -218 -94 -25 -351 -25 -435 0 -287 88 -416 333 -376 712 32
297 118 530 256 698 104 125 278 231 433 262 93 18 272 18 351 0z m3282 -17
c208 -77 320 -223 344 -451 l7 -65 -38 -6 c-22 -3 -114 -8 -205 -12 l-166 -6
-6 62 c-15 140 -88 210 -221 210 -206 0 -335 -181 -396 -554 -36 -222 -23
-389 37 -478 67 -98 248 -107 361 -18 44 35 100 117 123 182 l23 60 160 -6
c89 -4 178 -9 199 -12 46 -7 45 -9 -18 -139 -97 -201 -289 -362 -500 -420 -90
-25 -302 -31 -395 -11 -216 45 -371 199 -415 411 -21 101 -19 299 4 437 74
430 306 730 633 817 109 30 112 30 263 26 119 -2 150 -6 206 -27z m2402 17
c345 -61 512 -367 442 -805 -63 -386 -230 -653 -495 -789 -143 -73 -263 -101
-440 -101 -131 0 -219 19 -318 66 -238 114 -349 391 -298 744 70 482 327 798
716 881 104 22 284 24 393 4z m-3683 -31 c0 -9 -61 -377 -135 -818 -74 -442
-135 -806 -135 -809 0 -4 -90 -7 -200 -7 -147 0 -200 3 -200 12 0 6 61 373
135 814 74 442 135 808 135 813 0 8 66 11 200 11 177 0 200 -2 200 -16z m2405
-6 c-3 -13 -64 -374 -135 -803 -72 -429 -133 -790 -135 -802 -5 -23 -6 -23
-206 -23 l-201 0 6 32 c3 17 65 383 136 812 72 430 133 787 135 794 3 9 53 12
205 12 l200 0 -5 -22z m2457 -470 c-75 -451 -82 -503 -80 -608 3 -101 6 -120
28 -160 82 -146 312 -119 438 52 93 126 113 198 202 738 38 234 72 435 75 448
5 22 6 22 206 22 l201 0 -6 -27 c-23 -113 -238 -1428 -248 -1514 l-12 -109
-193 0 -193 0 6 58 c4 31 12 102 19 157 7 55 11 101 10 103 -1 2 -17 -21 -35
-50 -51 -83 -174 -200 -250 -236 -102 -50 -179 -65 -295 -60 -156 8 -249 54
-313 156 -52 83 -66 143 -67 282 0 112 10 184 94 683 l94 557 201 0 201 0 -83
-492z"/>
        <path d="M13578 9410 c-86 -26 -155 -97 -180 -184 -16 -58 -16 -200 1 -273
l13 -61 75 34 c168 76 276 164 309 250 24 63 16 155 -17 190 -44 49 -126 67
-201 44z"/>
        <path d="M13125 8431 c-154 -89 -237 -226 -237 -389 0 -101 34 -166 111 -217
51 -34 180 -52 254 -35 54 13 156 59 196 89 l22 17 -50 82 c-66 106 -153 279
-195 389 -19 48 -38 89 -43 90 -4 2 -30 -10 -58 -26z"/>
        <path d="M16096 9303 c-7 -26 -236 -1398 -236 -1418 0 -15 19 -17 233 -13 218
4 236 6 304 30 101 36 157 71 236 147 181 174 287 451 287 750 0 289 -128 457
-384 506 -51 10 -140 15 -256 15 -161 0 -179 -2 -184 -17z"/>
        <path d="M7542 8919 c-142 -27 -249 -155 -291 -346 l-9 -43 295 0 296 0 -5
113 c-4 95 -8 119 -30 162 -14 28 -34 58 -45 67 -44 40 -138 61 -211 47z"/>
        <path d="M18271 8919 c-134 -26 -225 -124 -280 -303 -11 -37 -21 -72 -21 -77
0 -5 126 -9 289 -9 l289 0 6 23 c18 70 -5 218 -44 280 -44 70 -141 105 -239
86z"/>
        <path d="M23850 8878 c-70 -27 -166 -121 -207 -203 -88 -176 -140 -464 -114
-635 17 -111 54 -177 121 -218 54 -33 57 -33 150 -30 82 3 104 8 154 33 76 39
147 117 196 219 101 209 142 573 80 714 -24 56 -74 106 -126 128 -52 22 -188
17 -254 -8z"/>
        <path d="M15048 4359 c-78 -11 -188 -50 -255 -91 -69 -41 -180 -157 -225 -235
-139 -236 -161 -525 -54 -706 34 -59 114 -130 181 -161 154 -73 376 -75 563
-6 115 43 250 124 257 155 3 11 21 111 41 223 27 159 33 207 23 218 -9 11 -58
14 -270 14 l-258 0 -7 -37 c-3 -21 -10 -56 -14 -78 -6 -25 -5 -44 2 -52 7 -9
56 -13 167 -15 178 -3 162 10 141 -115 l-12 -73 -79 -39 c-196 -98 -402 -89
-514 24 -58 57 -80 124 -79 240 2 163 60 316 163 427 120 130 332 175 479 101
67 -33 96 -71 113 -150 7 -30 19 -57 27 -60 16 -7 171 27 178 39 9 14 -17 132
-40 184 -71 156 -275 230 -528 193z"/>
        <path d="M7820 4343 c0 -5 -47 -273 -104 -598 -74 -417 -101 -594 -94 -602 7
-9 40 -13 97 -13 l87 0 75 425 c40 234 77 425 80 425 3 0 99 -191 214 -425
l209 -426 100 3 100 3 105 592 c86 488 102 595 91 608 -9 11 -33 15 -96 15
l-83 0 -10 -52 c-6 -29 -40 -222 -76 -428 -36 -206 -67 -376 -69 -378 -4 -3
-235 461 -378 756 l-50 102 -99 0 c-54 0 -99 -3 -99 -7z"/>
        <path d="M13500 4343 c0 -5 -47 -273 -104 -598 -74 -417 -101 -594 -94 -602 7
-9 39 -13 94 -13 79 0 84 1 89 23 3 12 50 280 105 596 78 444 98 576 89 587
-8 10 -36 14 -95 14 -46 0 -84 -3 -84 -7z"/>
        <path d="M20375 4338 c-14 -46 -206 -1180 -202 -1193 5 -12 25 -15 96 -15 86
0 91 1 96 23 2 12 36 202 75 421 38 219 72 401 74 403 6 6 9 -13 76 -422 33
-203 63 -382 66 -397 6 -28 6 -28 92 -28 l87 0 219 415 c120 229 220 414 222
412 2 -2 -28 -183 -66 -401 -54 -309 -68 -402 -59 -413 9 -10 34 -13 98 -11
l85 3 105 592 c87 494 102 595 91 608 -11 13 -33 15 -123 13 l-110 -3 -245
-467 c-136 -257 -247 -466 -249 -464 -3 3 -153 919 -153 932 0 2 -61 4 -135 4
-100 0 -137 -3 -140 -12z"/>
        <path d="M10250 4279 c-41 -22 -79 -44 -84 -49 -5 -5 -16 -51 -25 -102 l-17
-93 -54 -5 -55 -5 -12 -65 c-13 -77 -7 -90 48 -90 28 0 39 -4 39 -15 0 -9 -18
-118 -41 -243 -22 -125 -43 -265 -46 -312 -5 -83 -5 -87 23 -119 15 -19 43
-40 61 -47 34 -15 141 -18 206 -8 l37 7 0 72 c0 47 -5 76 -13 83 -7 6 -35 12
-62 14 -47 3 -50 5 -53 33 -2 24 62 418 83 512 5 20 12 22 78 25 l72 3 11 62
c14 78 2 93 -74 93 -29 0 -52 4 -52 10 0 5 10 64 21 130 17 96 19 123 9 135
-17 20 -14 21 -100 -26z"/>
        <path d="M23670 4279 c-41 -22 -79 -44 -84 -49 -5 -5 -16 -51 -25 -102 l-17
-93 -54 -5 -55 -5 -12 -65 c-13 -77 -7 -90 48 -90 28 0 39 -4 39 -15 0 -9 -18
-118 -41 -243 -22 -125 -43 -265 -46 -312 -5 -83 -5 -87 23 -119 15 -19 43
-40 61 -47 34 -15 141 -18 206 -8 l37 7 0 72 c0 47 -5 76 -13 83 -7 6 -35 12
-62 14 -47 3 -50 5 -53 33 -2 24 62 418 83 512 5 20 12 22 78 25 l72 3 11 62
c14 78 2 93 -74 93 -29 0 -52 4 -52 10 0 5 10 64 21 130 17 96 19 123 9 135
-17 20 -14 21 -100 -26z"/>
        <path d="M9270 4022 c-119 -31 -202 -97 -255 -202 -34 -68 -25 -85 52 -95 32
-3 67 -9 78 -11 16 -4 25 5 44 41 13 25 39 59 57 75 58 50 191 63 265 24 33
-16 50 -61 42 -109 -7 -42 -18 -46 -218 -75 -166 -25 -204 -34 -268 -66 -164
-83 -228 -293 -125 -410 48 -55 100 -76 198 -82 103 -5 187 13 277 63 l61 34
7 -40 7 -40 91 3 92 3 -3 80 c-3 60 7 141 37 317 23 131 41 263 41 295 0 103
-50 167 -156 199 -66 20 -241 17 -324 -4z m240 -501 c0 -10 -8 -43 -17 -72
-36 -110 -154 -185 -280 -177 -49 3 -68 9 -88 28 -48 45 -26 129 45 165 15 8
92 26 171 40 79 14 145 28 148 31 10 10 21 3 21 -15z"/>
        <path d="M11975 4023 c-16 -8 -40 -25 -52 -36 -23 -20 -23 -20 -23 -1 0 35
-21 44 -97 44 -40 0 -73 -1 -74 -2 0 -2 -35 -199 -78 -438 -53 -299 -75 -439
-68 -448 7 -9 35 -12 95 -10 l86 3 12 70 c86 483 101 541 155 595 44 43 93 55
148 37 24 -9 50 -13 57 -10 8 3 32 39 55 80 46 83 47 79 -26 113 -50 24 -148
26 -190 3z"/>
        <path d="M12620 4022 c-119 -31 -202 -97 -255 -202 -34 -68 -25 -85 52 -95 32
-3 67 -9 78 -11 16 -4 25 5 44 41 13 25 39 59 57 75 58 50 191 63 265 24 33
-16 50 -61 42 -109 -7 -42 -18 -46 -218 -75 -166 -25 -204 -34 -268 -66 -164
-83 -228 -293 -125 -410 48 -55 100 -76 198 -82 103 -5 187 13 277 63 l61 34
7 -40 7 -40 91 3 92 3 -3 80 c-3 60 7 141 37 317 23 131 41 263 41 295 0 103
-50 167 -156 199 -66 20 -241 17 -324 -4z m240 -501 c0 -10 -8 -43 -17 -72
-36 -110 -154 -185 -280 -177 -49 3 -68 9 -88 28 -48 45 -26 129 45 165 15 8
92 26 171 40 79 14 145 28 148 31 10 10 21 3 21 -15z"/>
        <path d="M16175 4023 c-16 -8 -40 -25 -52 -36 -23 -20 -23 -20 -23 -1 0 35
-21 44 -97 44 -40 0 -73 -1 -74 -2 0 -2 -35 -199 -78 -438 -53 -299 -75 -439
-68 -448 7 -9 35 -12 95 -10 l86 3 12 70 c86 483 101 541 155 595 44 43 93 55
148 37 24 -9 50 -13 57 -10 8 3 32 39 55 80 46 83 47 79 -26 113 -50 24 -148
26 -190 3z"/>
        <path d="M16858 4030 c-130 -33 -250 -135 -316 -270 -96 -197 -95 -416 2 -535
102 -123 337 -153 515 -64 71 36 156 117 194 186 34 64 25 80 -58 93 -91 15
-99 13 -119 -22 -76 -133 -233 -185 -335 -111 -40 30 -71 99 -71 160 l0 53
315 0 c291 0 316 1 323 18 4 9 7 76 7 147 0 151 -14 194 -85 265 -64 64 -117
84 -235 87 -55 1 -117 -2 -137 -7z m182 -172 c57 -30 82 -65 88 -127 l5 -51
-212 0 -212 0 7 23 c12 40 63 105 100 128 86 53 156 61 224 27z"/>
        <path d="M17898 4030 c-130 -33 -250 -135 -316 -270 -96 -197 -95 -416 2 -535
102 -123 337 -153 515 -64 71 36 156 117 194 186 34 64 25 80 -58 93 -91 15
-99 13 -119 -22 -76 -133 -233 -185 -335 -111 -40 30 -71 99 -71 160 l0 53
315 0 c291 0 316 1 323 18 4 9 7 76 7 147 0 151 -14 194 -85 265 -64 64 -117
84 -235 87 -55 1 -117 -2 -137 -7z m182 -172 c57 -30 82 -65 88 -127 l5 -51
-212 0 -212 0 7 23 c12 40 63 105 100 128 86 53 156 61 224 27z"/>
        <path d="M18973 4020 c-29 -10 -66 -28 -83 -40 l-30 -21 0 23 c0 39 -18 48
-97 48 -40 0 -73 -1 -74 -2 0 -2 -35 -199 -78 -438 -53 -299 -75 -439 -68
-448 7 -9 35 -12 96 -10 l85 3 47 265 c50 281 65 334 104 386 53 70 185 105
255 69 64 -33 64 -66 1 -425 -35 -194 -46 -279 -39 -287 7 -9 39 -13 94 -13
79 0 84 1 89 23 25 112 98 560 102 628 5 71 2 93 -15 131 -22 51 -68 90 -131
113 -61 21 -193 19 -258 -5z"/>
        <path d="M22020 4022 c-119 -31 -202 -97 -255 -202 -34 -68 -25 -85 52 -95 32
-3 67 -9 78 -11 16 -4 25 5 44 41 13 25 39 59 57 75 58 50 191 63 265 24 33
-16 50 -61 42 -109 -7 -42 -18 -46 -218 -75 -166 -25 -204 -34 -268 -66 -164
-83 -228 -293 -125 -410 48 -55 100 -76 198 -82 103 -5 187 13 277 63 l61 34
7 -40 7 -40 91 3 92 3 -3 80 c-3 60 7 141 37 317 23 131 41 263 41 295 0 103
-50 167 -156 199 -66 20 -241 17 -324 -4z m240 -501 c0 -10 -8 -43 -17 -72
-36 -110 -154 -185 -280 -177 -49 3 -68 9 -88 28 -48 45 -26 129 45 165 15 8
92 26 171 40 79 14 145 28 148 31 10 10 21 3 21 -15z"/>
        <path d="M23095 4023 c-16 -8 -40 -25 -52 -36 -23 -20 -23 -20 -23 -1 0 35
-21 44 -97 44 -40 0 -73 -1 -74 -2 0 -2 -35 -199 -78 -438 -53 -299 -75 -439
-68 -448 7 -9 35 -12 95 -10 l86 3 12 70 c86 483 101 541 155 595 44 43 93 55
148 37 24 -9 50 -13 57 -10 8 3 32 39 55 80 46 83 47 79 -26 113 -50 24 -148
26 -190 3z"/>
        <path d="M10685 4018 c-2 -7 -27 -143 -56 -303 -56 -319 -64 -417 -34 -478 68
-144 320 -170 484 -50 24 18 25 18 18 -7 -10 -40 8 -50 92 -50 l77 0 76 432
c60 339 73 436 65 450 -10 15 -25 18 -94 18 -81 0 -81 0 -87 -27 -3 -16 -24
-133 -46 -260 -46 -261 -58 -309 -93 -362 -29 -43 -108 -89 -169 -97 -92 -13
-156 45 -144 130 3 23 27 163 53 313 39 226 44 274 34 287 -17 20 -169 23
-176 4z"/>
    </g>
</svg>
